<?xml version="1.0" encoding="UTF-8" standalone="no"?>
<svg
   xmlns:dc="http://purl.org/dc/elements/1.1/"
   xmlns:cc="http://creativecommons.org/ns#"
   xmlns:rdf="http://www.w3.org/1999/02/22-rdf-syntax-ns#"
   xmlns:svg="http://www.w3.org/2000/svg"
   xmlns="http://www.w3.org/2000/svg"
   xmlns:sodipodi="http://sodipodi.sourceforge.net/DTD/sodipodi-0.dtd"
   xmlns:inkscape="http://www.inkscape.org/namespaces/inkscape"
   inkscape:version="1.0 (4035a4fb49, 2020-05-01)"
   sodipodi:docname="icon.svg"
   id="svg49"
   height="48"
   width="48"
   version="1.1">
  <metadata
     id="metadata53">
    <rdf:RDF>
      <cc:Work
         rdf:about="">
        <dc:format>image/svg+xml</dc:format>
        <dc:type
           rdf:resource="http://purl.org/dc/dcmitype/StillImage" />
      </cc:Work>
    </rdf:RDF>
  </metadata>
  <sodipodi:namedview
     inkscape:current-layer="g47"
     inkscape:window-maximized="1"
     inkscape:window-y="36"
     inkscape:window-x="0"
     inkscape:cy="19.396849"
     inkscape:cx="29.513433"
     inkscape:zoom="12.433294"
     showgrid="false"
     id="namedview51"
     inkscape:window-height="1008"
     inkscape:window-width="1920"
     inkscape:pageshadow="2"
     inkscape:pageopacity="0"
     guidetolerance="10"
     gridtolerance="10"
     objecttolerance="10"
     borderopacity="1"
     bordercolor="#666666"
     pagecolor="#ffffff" />
  <defs
     id="defs25">
    <linearGradient
       id="color-1"
       gradientUnits="userSpaceOnUse"
       y2="0"
       x2="0"
       y1="0"
       x1="0">
      <stop
         id="stop2"
         stop-opacity="0.3"
         stop-color="#000000"
         offset="0" />
      <stop
         id="stop4"
         stop-opacity="0"
         stop-color="#000000"
         offset="1" />
    </linearGradient>
    <filter
       id="dropshadow-base">
      <feColorMatrix
         id="feColorMatrix7"
         values="0 0 0 0 0  0 0 0 0 0  0 0 0 0 0  0 0 0 .8 0"
         type="matrix" />
      <feOffset
         id="feOffset9"
         dy="1"
         dx="0" />
      <feGaussianBlur
         result="result1"
         id="feGaussianBlur11"
         stdDeviation="1" />
      <feComposite
         id="feComposite13"
         in2="result1"
         in="SourceGraphic" />
    </filter>
    <filter
       height="130%"
       width="120%"
       y="-10%"
       x="-10%"
       id="dropshadow-banner">
      <feColorMatrix
         id="feColorMatrix16"
         values="0 0 0 0 0  0 0 0 0 0  0 0 0 0 0  0 0 0 .4 0"
         type="matrix" />
      <feOffset
         id="feOffset18"
         dy="1"
         dx="0" />
      <feGaussianBlur
         result="result1"
         id="feGaussianBlur20"
         stdDeviation="0.5" />
      <feComposite
         id="feComposite22"
         in2="result1"
         in="SourceGraphic" />
    </filter>
    <filter
       id="filter1145"
       inkscape:label="Drop Shadow"
       style="color-interpolation-filters:sRGB;">
      <feFlood
         id="feFlood1135"
         result="flood"
         flood-color="rgb(0,0,0)"
         flood-opacity="0.305882" />
      <feComposite
         id="feComposite1137"
         result="composite1"
         operator="in"
         in2="SourceGraphic"
         in="flood" />
      <feGaussianBlur
         id="feGaussianBlur1139"
         result="blur"
         stdDeviation="1"
         in="composite1" />
      <feOffset
         id="feOffset1141"
         result="offset"
         dy="0.3"
         dx="0.3" />
      <feComposite
         id="feComposite1143"
         result="composite2"
         operator="over"
         in2="offset"
         in="SourceGraphic" />
    </filter>
  </defs>
  <g
     id="g47"
     style="mix-blend-mode: normal"
     text-anchor="none"
     font-size="none"
     font-weight="none"
     font-family="none"
     stroke-dashoffset="0"
     stroke-dasharray=""
     stroke-miterlimit="10"
     stroke-linejoin="miter"
     stroke-linecap="butt"
     stroke-width="none"
     stroke="none"
     fill-rule="nonzero"
     fill="none">
    <path
       style="filter:url(#filter1145)"
       stroke-width="1"
       fill="#448aff"
       id="base 1 5"
       d="M4,40c-1.10457,0 -2,-0.89543 -2,-2v-28c0,-1.10457 0.89543,-2 2,-2h40c1.10457,0 2,0.89543 2,2v28c0,1.10457 -0.89543,2 -2,2z" />
    <path
       id="path28"
       stroke-width="1"
       fill="url(#color-1)"
       d="" />
    <path
       id="path30"
       stroke-width="0"
       fill="none"
       d="M10.46951,13.85213v2.7061h2.7061v-2.7061h-2.7061zM34.8244,13.85213v2.7061h2.7061v-2.7061h-2.7061zM10.46951,17.91128v2.7061h2.7061v-2.7061h-2.7061zM14.52865,17.91128v2.7061h2.7061v-2.7061h-2.7061zM26.7061,17.91128v2.7061h2.7061v-2.7061h-2.7061zM30.76525,17.91128v2.7061h2.7061v-2.7061h-2.7061zM34.8244,17.91128v2.7061h2.7061v-2.7061h-2.7061zM10.46951,21.97043v2.7061h2.7061v-2.7061h-2.7061zM14.52865,21.97043v2.7061h2.7061v-2.7061h-2.7061zM18.5878,21.97043v2.7061h2.7061v-2.7061h-2.7061zM22.64695,21.97043v2.7061h2.7061v-2.7061h-2.7061zM26.7061,21.97043v2.7061h2.7061v-2.7061h-2.7061zM30.76525,21.97043v2.7061h2.7061v-2.7061h-2.7061zM34.8244,21.97043v2.7061h2.7061v-2.7061h-2.7061zM10.46951,26.02957v2.7061h2.7061v-2.7061h-2.7061zM14.52865,26.02957v2.7061h2.7061v-2.7061h-2.7061zM18.5878,26.02957v2.7061h2.7061v-2.7061h-2.7061zM22.64695,26.02957v2.7061h2.7061v-2.7061h-2.7061zM26.7061,26.02957v2.7061h2.7061v-2.7061h-2.7061zM30.76525,26.02957v2.7061h2.7061v-2.7061h-2.7061zM34.8244,26.02957v2.7061h2.7061v-2.7061h-2.7061zM14.52865,31.44177v2.7061h2.7061v-2.7061h-2.7061zM18.5878,31.44177v2.7061h2.7061v-2.7061h-2.7061zM22.64695,31.44177v2.7061h2.7061v-2.7061h-2.7061zM26.7061,31.44177v2.7061h2.7061v-2.7061h-2.7061zM30.76525,31.44177v2.7061h2.7061v-2.7061z" />
    <path
       id="path32"
       stroke-width="0"
       fill="#ffffff"
       d="M10.46951,13.85213h2.7061v2.7061h-2.7061zM34.8244,13.85213h2.7061v2.7061h-2.7061zM10.46951,17.91128h2.7061v2.7061h-2.7061zM14.52865,17.91128h2.7061v2.7061h-2.7061zM26.7061,17.91128h2.7061v2.7061h-2.7061zM30.76525,17.91128h2.7061v2.7061h-2.7061zM34.8244,17.91128h2.7061v2.7061h-2.7061zM10.46951,21.97043h2.7061v2.7061h-2.7061zM14.52865,21.97043h2.7061v2.7061h-2.7061zM18.5878,21.97043h2.7061v2.7061h-2.7061zM22.64695,21.97043h2.7061v2.7061h-2.7061zM26.7061,21.97043h2.7061v2.7061h-2.7061zM30.76525,21.97043h2.7061v2.7061h-2.7061zM34.8244,21.97043h2.7061v2.7061h-2.7061zM10.46951,26.02957h2.7061v2.7061h-2.7061zM14.52865,26.02957h2.7061v2.7061h-2.7061zM18.5878,26.02957h2.7061v2.7061h-2.7061zM22.64695,26.02957h2.7061v2.7061h-2.7061zM26.7061,26.02957h2.7061v2.7061h-2.7061zM30.76525,26.02957h2.7061v2.7061h-2.7061zM34.8244,26.02957h2.7061v2.7061h-2.7061zM14.52865,31.44177h2.7061v2.7061h-2.7061zM18.5878,31.44177h2.7061v2.7061h-2.7061zM22.64695,31.44177h2.7061v2.7061h-2.7061zM26.7061,31.44177h2.7061v2.7061h-2.7061zM33.47135,31.44177v2.7061h-2.7061v-2.7061z" />
    <path
       stroke-width="1"
       fill="none"
       id="base 1 1 1"
       d="M2,24c0,-12.15026 9.84974,-22 22,-22c12.15026,0 22,9.84974 22,22c0,12.15026 -9.84974,22 -22,22c-12.15026,0 -22,-9.84974 -22,-22z" />
    <g
       id="g35"
       text-anchor="start"
       font-size="14"
       font-weight="400"
       font-family="Roboto, sans-serif"
       stroke-width="1"
       fill="#000000" />
    <rect
       id="rect37"
       stroke-width="1"
       fill="none"
       height="22"
       width="44"
       y="2"
       x="2" />
    <path
       id="path39"
       stroke-width="1"
       fill="none"
       d="M2,24v-22h44v22z" />
    <path
       id="path41"
       stroke-width="1"
       fill="none"
       d="M2,24v-22h44v22z" />
    <path
       id="path43"
       stroke-width="1"
       fill="none"
       d="M2,24v-22h44v22z" />
    <path
       id="path45"
       stroke-width="1"
       fill="none"
       d="M2,24v-22h44v22z" />
  </g>
</svg>
